<svg width="27" height="19" fill="none" xmlns="http://www.w3.org/2000/svg"><path d="M4.7 9.6c0-.5.2-1 .6-1.4a2 2 0 0 1 1.4-.6c.5 0 1 .2 1.4.6a2 2 0 0 1 0 2.8 2 2 0 0 1-1.4.6 2 2 0 0 1-1.4-.6 2 2 0 0 1-.6-1.4ZM.5 7.7C.5 5.6 1 4 2 2.7A5.9 5.9 0 0 1 6.7.9c2 0 3.4.6 4.5 1.8a7.2 7.2 0 0 1 1.7 5v3.8c0 2.2-.6 4-1.7 5a5.9 5.9 0 0 1-4.5 1.8A6 6 0 0 1 2 16.6c-1-1.2-1.6-2.9-1.6-5.1V7.7Zm6.2 7.8c.6 0 1-.1 1.4-.3l1-.8.5-1.2.1-1.5V7.5c0-.5 0-1-.2-1.5 0-.4-.2-.8-.5-1.2-.2-.3-.5-.6-1-.7-.3-.3-.8-.4-1.3-.4-.6 0-1 .1-1.4.4-.4.1-.7.4-1 .7L3.9 6l-.1 1.5v4.2l.1 1.5.5 1.2c.2.3.6.6 1 .8.3.2.8.3 1.4.3Zm12.6-.5V2.8h-.4l-1.6 5.7h-3v-.2l2-7.1h6.2V15h4.1v3h-12v-3h4.7Z" fill="#495567"/></svg>