<svg width="27" height="19" fill="none" xmlns="http://www.w3.org/2000/svg"><path d="M4.67 9.6c0-.54.2-1.02.6-1.42.4-.4.87-.6 1.41-.6.55 0 1.02.2 1.42.6.4.4.6.88.6 1.42 0 .54-.2 1.02-.6 1.42-.4.4-.87.6-1.42.6-.54 0-1.01-.2-1.41-.6-.4-.4-.6-.88-.6-1.42ZM.49 7.73c0-2.18.55-3.87 1.63-5.07A5.89 5.89 0 0 1 6.68.86c1.94 0 3.45.6 4.54 1.8 1.1 1.2 1.66 2.9 1.66 5.07v3.74c0 2.24-.56 3.95-1.66 5.11-1.09 1.17-2.6 1.76-4.54 1.76-1.93 0-3.45-.59-4.56-1.76C1.04 15.42.5 13.71.5 11.48V7.72Zm6.2 7.73c.57 0 1.05-.1 1.43-.27.39-.19.7-.45.94-.79s.4-.74.5-1.2c.1-.46.15-.98.15-1.54V7.54c0-.53-.06-1.03-.17-1.5a3.42 3.42 0 0 0-.53-1.2 2.5 2.5 0 0 0-.93-.78c-.39-.21-.85-.32-1.4-.32-.54 0-1 .1-1.39.32-.38.19-.7.45-.93.79-.24.33-.42.73-.53 1.2-.11.46-.17.96-.17 1.49v4.12c0 .56.05 1.08.14 1.54.1.46.27.86.5 1.2.25.34.56.6.94.8.39.17.87.26 1.44.26Zm19.64-.48V18h-11.8v-3.31c0-.88.12-1.63.38-2.26.27-.62.65-1.15 1.13-1.58.5-.43 1.08-.79 1.77-1.06.69-.29 1.47-.53 2.33-.72a8.7 8.7 0 0 0 1.56-.48c.42-.19.74-.4.98-.62.24-.24.4-.5.48-.77.1-.29.15-.6.15-.96 0-.67-.25-1.23-.75-1.68a2.84 2.84 0 0 0-2.01-.67 2.9 2.9 0 0 0-2.19.84c-.54.54-.81 1.3-.81 2.28v1.05h-3.17V6.72a5.7 5.7 0 0 1 1.6-4.1 5.52 5.52 0 0 1 1.93-1.28c.75-.32 1.6-.48 2.54-.48 1.01 0 1.89.16 2.64.46.75.29 1.38.67 1.87 1.15a5.07 5.07 0 0 1 1.51 3.62v.3c0 1.4-.4 2.57-1.2 3.5-.78.93-2.07 1.6-3.86 2.01-.75.18-1.37.36-1.87.56-.48.17-.86.37-1.13.6-.27.22-.46.47-.57.74-.1.26-.15.55-.15.89v.29h8.64Z" fill="#495567"/></svg>