<svg width="27" height="19" fill="none" xmlns="http://www.w3.org/2000/svg"><path d="M4.67 9.6c0-.54.2-1.02.6-1.42.4-.4.87-.6 1.41-.6.55 0 1.02.2 1.42.6.4.4.6.88.6 1.42 0 .54-.2 1.02-.6 1.42-.4.4-.87.6-1.42.6-.54 0-1.01-.2-1.41-.6-.4-.4-.6-.88-.6-1.42ZM.49 7.73c0-2.18.55-3.87 1.63-5.07A5.89 5.89 0 0 1 6.68.86c1.94 0 3.45.6 4.54 1.8 1.1 1.2 1.66 2.9 1.66 5.07v3.74c0 2.24-.56 3.95-1.66 5.11-1.09 1.17-2.6 1.76-4.54 1.76-1.93 0-3.45-.59-4.56-1.76C1.04 15.42.5 13.71.5 11.48V7.72Zm6.2 7.73c.57 0 1.05-.1 1.43-.27.39-.19.7-.45.94-.79s.4-.74.5-1.2c.1-.46.15-.98.15-1.54V7.54c0-.53-.06-1.03-.17-1.5a3.42 3.42 0 0 0-.53-1.2 2.5 2.5 0 0 0-.93-.78c-.39-.21-.85-.32-1.4-.32-.54 0-1 .1-1.39.32-.38.19-.7.45-.93.79-.24.33-.42.73-.53 1.2-.11.46-.17.96-.17 1.49v4.12c0 .56.05 1.08.14 1.54.1.46.27.86.5 1.2.25.34.56.6.94.8.39.17.87.26 1.44.26Zm11.99-4.66v-5l4.17-1.14v-.44H14.5V1.2h10.94v5.28l-4.46 1.3v.43h.58c.59 0 1.17.1 1.75.29a4.27 4.27 0 0 1 2.6 2.28c.26.56.4 1.22.4 1.99v.29c0 .75-.13 1.44-.39 2.08-.24.64-.6 1.2-1.1 1.68-.48.47-1.08.84-1.8 1.1-.72.28-1.54.42-2.47.42-.95 0-1.8-.16-2.57-.46a5.63 5.63 0 0 1-3.62-5.26v-1h3.16v.86c0 .77.25 1.43.75 2 .5.55 1.24.83 2.23.83.85 0 1.5-.21 1.94-.65.47-.43.7-1 .7-1.7 0-.75-.25-1.3-.74-1.63a3.05 3.05 0 0 0-1.85-.53h-1.87Z" fill="#495567"/></svg>