<svg width="159" height="56" fill="none" xmlns="http://www.w3.org/2000/svg"><rect width="159" height="56" rx="4" fill="#E5ECF4"/><g clip-path="url(#a)" fill="#495567"><path d="M60.5 40h-4.76l-.68 3H52.3l3.34-14h4.96l3.34 14h-2.76l-.68-3Zm-4.2-2.52h3.62l-1.62-7.16h-.36l-1.64 7.16ZM66.9132 47h-2.52V33.08h2.52v1.44h.36c.2667-.5467.6534-.9667 1.16-1.26.5067-.3067 1.1534-.46 1.94-.46.5867 0 1.14.1133 1.66.34.5334.2267.9934.56 1.38 1 .4.4267.7134.9533.94 1.58.24.6267.36 1.34.36 2.14v.36c0 .8133-.1133 1.5333-.34 2.16-.2266.6267-.5333 1.16-.92 1.6-.3866.4267-.8466.7533-1.38.98-.52.2133-1.0866.32-1.7.32-.4533 0-.8466-.0467-1.18-.14-.3333-.0933-.6266-.22-.88-.38-.24-.16-.4466-.34-.62-.54-.16-.2133-.3-.4333-.42-.66h-.36V47Zm2.64-6.12c.7867 0 1.42-.24 1.9-.72.4934-.4933.74-1.16.74-2v-.24c0-.84-.2466-1.5-.74-1.98-.48-.4933-1.1133-.74-1.9-.74-.7866 0-1.4266.2533-1.92.76-.48.4933-.72 1.1467-.72 1.96v.24c0 .8133.24 1.4733.72 1.98.4934.4933 1.1334.74 1.92.74ZM78.2665 47h-2.52V33.08h2.52v1.44h.36c.2666-.5467.6533-.9667 1.16-1.26.5066-.3067 1.1533-.46 1.94-.46.5866 0 1.14.1133 1.66.34.5333.2267.9933.56 1.38 1 .4.4267.7133.9533.94 1.58.24.6267.36 1.34.36 2.14v.36c0 .8133-.1134 1.5333-.34 2.16-.2267.6267-.5334 1.16-.92 1.6-.3867.4267-.8467.7533-1.38.98-.52.2133-1.0867.32-1.7.32-.4534 0-.8467-.0467-1.18-.14-.3334-.0933-.6267-.22-.88-.38-.24-.16-.4467-.34-.62-.54-.16-.2133-.3-.4333-.42-.66h-.36V47Zm2.64-6.12c.7866 0 1.42-.24 1.9-.72.4933-.4933.74-1.16.74-2v-.24c0-.84-.2467-1.5-.74-1.98-.48-.4933-1.1134-.74-1.9-.74-.7867 0-1.4267.2533-1.92.76-.48.4933-.72 1.1467-.72 1.96v.24c0 .8133.24 1.4733.72 1.98.4933.4933 1.1333.74 1.92.74Zm13.6732-7.6c0-.56-.22-1.0467-.66-1.46-.4267-.4133-1.0333-.62-1.82-.62-.6667 0-1.1933.14-1.58.42-.3867.2667-.58.6333-.58 1.1 0 .24.0467.46.14.66.0933.1867.2533.36.48.52.24.1467.5467.28.92.4.3867.12.8733.2333 1.46.34 1.4667.2667 2.5867.7133 3.36 1.34.7733.6267 1.16 1.5533 1.16 2.78V39c0 .6533-.12 1.2467-.36 1.78-.2267.52-.56.9667-1 1.34-.44.3733-.9733.66-1.6.86-.6267.2-1.3333.3-2.12.3-.92 0-1.7333-.1267-2.44-.38-.6933-.2667-1.2733-.6267-1.74-1.08-.4667-.4667-.82-1.0067-1.06-1.62-.24-.6267-.36-1.3067-.36-2.04v-.6h2.64v.48c0 .84.24 1.5133.72 2.02.4933.4933 1.2533.74 2.28.74.8 0 1.3933-.1733 1.78-.52.3867-.3467.58-.76.58-1.24 0-.2267-.04-.44-.12-.64-.08-.2133-.22-.4-.42-.56-.2-.1733-.4733-.3267-.82-.46-.3467-.1333-.7867-.2467-1.32-.34-.7067-.12-1.3533-.2733-1.94-.46-.5867-.2-1.1-.46-1.54-.78-.4267-.32-.76-.72-1-1.2s-.36-1.0667-.36-1.76v-.12c0-.5733.1133-1.1.34-1.58.24-.4933.5667-.92.98-1.28.4267-.36.9333-.64 1.52-.84.6-.2 1.2667-.3 2-.3.8267 0 1.56.12 2.2.36.64.2267 1.1733.54 1.6.94.44.4.7667.86.98 1.38.2267.52.34 1.0667.34 1.64v.72h-2.64v-.48Zm4.1132-.2h2.9401V29h2.52v4.08h3.58v2.4h-3.58V40c0 .4.18.6.54.6h2.68V43h-4.2c-.453 0-.827-.1467-1.12-.44-.28-.2933-.42-.6667-.42-1.12v-5.96h-2.9401v-2.4Zm21.3531 5.08c0 .8267-.14 1.56-.42 2.2-.28.6267-.66 1.16-1.14 1.6-.48.4267-1.033.7533-1.66.98-.613.2267-1.26.34-1.94.34-.68 0-1.333-.1133-1.96-.34-.613-.2267-1.16-.5533-1.64-.98-.48-.44-.86-.9733-1.14-1.6-.28-.64-.42-1.3733-.42-2.2v-.24c0-.8133.14-1.5333.42-2.16.28-.64.66-1.18 1.14-1.62.48-.44 1.027-.7733 1.64-1 .627-.2267 1.28-.34 1.96-.34.68 0 1.327.1133 1.94.34.627.2267 1.18.56 1.66 1 .48.44.86.98 1.14 1.62.28.6267.42 1.3467.42 2.16v.24Zm-5.16 2.72c.36 0 .7-.06 1.02-.18.32-.12.6-.2933.84-.52s.427-.5.56-.82c.147-.3333.22-.7067.22-1.12v-.4c0-.4133-.073-.78-.22-1.1-.133-.3333-.32-.6133-.56-.84-.24-.2267-.52-.4-.84-.52-.32-.12-.66-.18-1.02-.18s-.7.06-1.02.18c-.32.12-.6.2933-.84.52s-.433.5067-.58.84c-.133.32-.2.6867-.2 1.1v.4c0 .4133.067.7867.2 1.12.147.32.34.5933.58.82.24.2267.52.4.84.52.32.12.66.18 1.02.18Zm6.313-7.8h4.2v1.44h.36c.187-.5467.5-.9667.94-1.26.454-.3067.994-.46 1.62-.46.987 0 1.78.3133 2.38.94.6.6133.9 1.5533.9 2.82V37l-2.6.24v-.28c0-.5467-.14-.98-.42-1.3-.28-.3333-.7-.5-1.26-.5s-1 .1933-1.32.58c-.32.3867-.48.94-.48 1.66v3.2h2.28V43h-6.84v-2.4h2.04v-5.12h-1.8v-2.4Zm14.054 5.78c.013.2933.08.5667.2.82.133.24.306.4533.52.64.226.1733.48.3133.76.42.293.0933.6.14.92.14.626 0 1.106-.1067 1.44-.32.333-.2267.573-.4933.72-.8l2.16 1.2c-.12.2533-.287.52-.5.8-.214.2667-.494.5133-.84.74-.334.2267-.747.4133-1.24.56-.48.1467-1.047.22-1.7.22-.747 0-1.427-.12-2.04-.36-.614-.24-1.147-.5867-1.6-1.04-.44-.4533-.787-1.0067-1.04-1.66-.24-.6533-.36-1.3933-.36-2.22v-.12c0-.76.126-1.4533.38-2.08.266-.6267.626-1.16 1.08-1.6.453-.44.98-.78 1.58-1.02.613-.2533 1.266-.38 1.96-.38.853 0 1.586.1533 2.2.46.613.2933 1.12.6733 1.52 1.14.4.4533.693.96.88 1.52.186.5467.28 1.08.28 1.6v1.34h-7.28Zm2.38-3.78c-.64 0-1.16.1667-1.56.5-.4.32-.66.6933-.78 1.12h4.68c-.08-.4667-.334-.8533-.76-1.16-.414-.3067-.94-.46-1.58-.46ZM56.25 17.5h-2.38l-.34 1.5h-1.38l1.67-7h2.48l1.67 7h-1.38l-.34-1.5Zm-2.1-1.26h1.81l-.81-3.58h-.18l-.82 3.58Zm3.9566-2.2h1.36l1.17 4.36h.18l1.17-4.36h1.36l-1.42 4.96h-2.4l-1.42-4.96Zm9.2366 4.24c-.1333.3133-.32.5367-.56.67-.24.1267-.52.19-.84.19-.3 0-.5833-.0567-.85-.17-.26-.1133-.49-.28-.69-.5-.2-.22-.36-.4867-.48-.8-.1133-.3133-.17-.67-.17-1.07v-.16c0-.3933.0567-.7467.17-1.06.1134-.3133.2667-.58.46-.8.1934-.22.4167-.3867.67-.5.26-.12.5367-.18.83-.18.3534 0 .6367.06.85.18.22.12.3934.3067.52.56h.18v-.6h1.26v3.46c0 .2.09.3.27.3h.19V19h-.86c-.2266 0-.4133-.0667-.56-.2-.14-.1333-.21-.3067-.21-.52h-.18Zm-1.12-.34c.3667 0 .66-.12.88-.36.22-.2467.33-.58.33-1v-.12c0-.42-.11-.75-.33-.99-.22-.2467-.5133-.37-.88-.37-.3666 0-.66.1233-.88.37-.22.24-.33.57-.33.99v.12c0 .42.11.7533.33 1 .22.24.5134.36.88.36Zm3.6767-.14h1.68v-2.56h-1.56v-1.2h2.82v3.76h1.44V19h-4.38v-1.2Zm3.25-5.23c0 .1333-.0267.26-.08.38-.0467.1133-.1134.2133-.2.3-.0867.08-.19.1467-.31.2-.1134.0467-.2334.07-.36.07-.1334 0-.2567-.0233-.37-.07-.1134-.0533-.2134-.12-.3-.2-.0867-.0867-.1567-.1867-.21-.3-.0467-.12-.07-.2467-.07-.38s.0233-.2567.07-.37c.0533-.12.1233-.22.21-.3.0866-.0867.1866-.1533.3-.2.1133-.0533.2366-.08.37-.08.1266 0 .2466.0267.36.08.12.0467.2233.1133.31.2.0866.08.1533.18.2.3.0533.1133.08.2367.08.37Zm2.3066 5.23h1.74v-4.6h-1.68V12h2.94v5.8h1.62V19h-4.62v-1.2Zm8.9166.48c-.1333.3133-.32.5367-.56.67-.24.1267-.52.19-.84.19-.3 0-.5833-.0567-.85-.17-.26-.1133-.49-.28-.69-.5-.2-.22-.36-.4867-.48-.8-.1133-.3133-.17-.67-.17-1.07v-.16c0-.3933.0567-.7467.17-1.06.1133-.3133.2667-.58.46-.8.1933-.22.4167-.3867.67-.5.26-.12.5367-.18.83-.18.3533 0 .6367.06.85.18.22.12.3933.3067.52.56h.18v-.6h1.26v3.46c0 .2.09.3.27.3h.19V19h-.86c-.2267 0-.4133-.0667-.56-.2-.14-.1333-.21-.3067-.21-.52h-.18Zm-1.12-.34c.3667 0 .66-.12.88-.36.22-.2467.33-.58.33-1v-.12c0-.42-.11-.75-.33-.99-.22-.2467-.5133-.37-.88-.37s-.66.1233-.88.37c-.22.24-.33.57-.33.99v.12c0 .42.11.7533.33 1 .22.24.5133.36.88.36ZM87.8897 19h-1.26v-7h1.26v2.76h.18c.1333-.2733.3267-.4833.58-.63.2533-.1533.5767-.23.97-.23.2933 0 .57.0567.83.17.2667.1133.4967.28.69.5.2.2133.3567.4767.47.79.12.3133.18.67.18 1.07v.18c0 .4067-.0567.7667-.17 1.08-.1133.3133-.2667.58-.46.8-.1933.2133-.4233.3767-.69.49-.26.1067-.5433.16-.85.16-.2267 0-.4233-.0233-.59-.07-.1667-.0467-.3133-.11-.44-.19-.12-.08-.2233-.17-.31-.27-.08-.1067-.15-.2167-.21-.33h-.18V19Zm1.32-1.06c.3933 0 .71-.12.95-.36.2467-.2467.37-.58.37-1v-.12c0-.42-.1233-.75-.37-.99-.24-.2467-.5567-.37-.95-.37s-.7133.1267-.96.38c-.24.2467-.36.5733-.36.98v.12c0 .4067.12.7367.36.99.2467.2467.5667.37.96.37Zm3.2766-.14h1.74v-4.6h-1.68V12h2.94v5.8h1.62V19h-4.62v-1.2Zm6.8166-.87c.0067.1467.04.2833.1.41.0667.12.1534.2267.26.32.1134.0867.24.1567.3801.21.147.0467.3.07.46.07.313 0 .553-.0533.72-.16.167-.1133.287-.2467.36-.4l1.08.6c-.06.1267-.143.26-.25.4-.107.1333-.247.2567-.42.37-.167.1133-.373.2067-.62.28-.24.0733-.523.11-.85.11-.373 0-.7134-.06-1.0201-.18-.3066-.12-.5733-.2933-.8-.52-.22-.2267-.3933-.5033-.52-.83-.12-.3267-.18-.6967-.18-1.11v-.06c0-.38.0634-.7267.19-1.04.1334-.3133.3134-.58.54-.8.2267-.22.49-.39.79-.51.3067-.1267.6331-.19.9801-.19.427 0 .793.0767 1.1.23.307.1467.56.3367.76.57.2.2267.347.48.44.76.093.2733.14.54.14.8v.67h-3.6401Zm1.1901-1.89c-.32 0-.5801.0833-.7801.25-.2.16-.33.3467-.39.56h2.3401c-.04-.2333-.167-.4267-.38-.58-.207-.1533-.47-.23-.79-.23Zm13.913 1.54c0 .4133-.07.78-.21 1.1-.14.3133-.33.58-.57.8-.24.2133-.516.3767-.83.49-.306.1133-.63.17-.97.17-.34 0-.666-.0567-.98-.17-.306-.1133-.58-.2767-.82-.49-.24-.22-.43-.4867-.57-.8-.14-.32-.21-.6867-.21-1.1v-.12c0-.4067.07-.7667.21-1.08.14-.32.33-.59.57-.81.24-.22.514-.3867.82-.5.314-.1133.64-.17.98-.17.34 0 .664.0567.97.17.314.1133.59.28.83.5.24.22.43.49.57.81.14.3133.21.6733.21 1.08v.12Zm-2.58 1.36c.18 0 .35-.03.51-.09.16-.06.3-.1467.42-.26.12-.1133.214-.25.28-.41.074-.1667.11-.3533.11-.56v-.2c0-.2067-.036-.39-.11-.55-.066-.1667-.16-.3067-.28-.42-.12-.1133-.26-.2-.42-.26-.16-.06-.33-.09-.51-.09s-.35.03-.51.09c-.16.06-.3.1467-.42.26-.12.1133-.216.2533-.29.42-.066.16-.1.3433-.1.55v.2c0 .2067.034.3933.1.56.074.16.17.2967.29.41.12.1133.26.2.42.26.16.06.33.09.51.09Zm4.657 1.06h-1.26v-4.96h1.26v.74h.18c.113-.28.296-.4967.55-.65.253-.1533.55-.23.89-.23.24 0 .463.04.67.12.213.0733.4.19.56.35.16.16.283.3633.37.61.093.2467.14.54.14.88V19h-1.26v-2.82c0-.3533-.087-.63-.26-.83-.167-.2067-.41-.31-.73-.31-.374 0-.654.1267-.84.38-.18.2467-.27.58-.27 1V19Zm9.953-4.96h1.47V12h1.26v2.04h1.79v1.2h-1.79v2.26c0 .2.09.3.27.3h1.34V19h-2.1c-.227 0-.413-.0733-.56-.22-.14-.1467-.21-.3333-.21-.56v-2.98h-1.47v-1.2Zm7.097 4.96h-1.26v-7h1.26v2.84h.18c.126-.3.313-.53.56-.69.246-.1667.55-.25.91-.25.246 0 .473.04.68.12.206.08.386.2.54.36.153.16.273.3667.36.62.086.2467.13.54.13.88V19h-1.26v-2.82c0-.3533-.087-.63-.26-.83-.167-.2067-.41-.31-.73-.31-.374 0-.654.1267-.84.38-.18.2467-.27.58-.27 1V19Zm5.506-2.07c.007.1467.04.2833.1.41.067.12.154.2267.26.32.114.0867.24.1567.38.21.147.0467.3.07.46.07.314 0 .554-.0533.72-.16.167-.1133.287-.2467.36-.4l1.08.6c-.06.1267-.143.26-.25.4-.106.1333-.246.2567-.42.37-.166.1133-.373.2067-.62.28-.24.0733-.523.11-.85.11-.373 0-.713-.06-1.02-.18-.306-.12-.573-.2933-.8-.52-.22-.2267-.393-.5033-.52-.83-.12-.3267-.18-.6967-.18-1.11v-.06c0-.38.064-.7267.19-1.04.134-.3133.314-.58.54-.8.227-.22.49-.39.79-.51.307-.1267.634-.19.98-.19.427 0 .794.0767 1.1.23.307.1467.56.3367.76.57.2.2267.347.48.44.76.094.2733.14.54.14.8v.67h-3.64Zm1.19-1.89c-.32 0-.58.0833-.78.25-.2.16-.33.3467-.39.56h2.34c-.04-.2333-.166-.4267-.38-.58-.206-.1533-.47-.23-.79-.23Z"/></g><path fill-rule="evenodd" clip-rule="evenodd" d="M29.5501 16.2326c.9878-1.2062 2.6828-2.1325 4.133-2.2326.2431 1.649-.4284 3.2641-1.3159 4.4058-.9487 1.2266-2.5859 2.1749-4.1704 2.1257-.289-1.5794.4522-3.2047 1.3533-4.2989Zm4.4664 4.3007c1.9301 0 3.9738 1.044 5.4281 2.843-4.7676 2.5942-3.9952 9.352.8221 11.1615-.6623 1.4574-.9802 2.1072-1.8342 3.3982-1.1915 1.8007-2.8694 4.0445-4.9522 4.0603-.8562.0089-1.4179-.2467-2.0235-.5223-.7019-.3195-1.4629-.6658-2.8098-.6583-1.3394.0065-2.1125.3486-2.8241.6634-.6212.2748-1.1955.5289-2.0588.5207-2.081-.0175-3.672-2.0424-4.8634-3.8431-3.3293-5.0325-3.6809-10.9408-1.6265-14.0833 1.4614-2.2316 3.7661-3.5366 5.9306-3.5366 1.1536 0 2.0833.3289 2.9693.6423.8064.2852 1.5766.5576 2.4463.5576.8048 0 1.4665-.2487 2.1882-.52.8659-.3254 1.8182-.6834 3.2079-.6834Z" fill="#495567"/><defs><clipPath id="a"><path fill="#fff" transform="translate(52 8)" d="M0 0h91v39H0z"/></clipPath></defs></svg>