<svg width="43" height="32" fill="none" xmlns="http://www.w3.org/2000/svg"><path d="M18.0698 30.301c-.2177 0-.4309.0885-.5846.2423-.1538.1537-.2423.3672-.2423.5846 0 .2174.0885.4309.2423.5846.1537.1538.3669.2423.5846.2423.2174 0 .4305-.0885.5846-.2423.1538-.1537.2423-.3663.2423-.5846 0-.2174-.0885-.4309-.2423-.5846-.1541-.1538-.3672-.2423-.5846-.2423Z" fill="#000"/><path fill-rule="evenodd" clip-rule="evenodd" d="m34.5391 16.4188-1.927-8.70571c.52-.07041.9787-.33494 1.3013-.71802.3809.23805.8301.37629 1.3114.37629h1.6538c.4567 0 .8268-.37015.8268-.82687V3.237c0-.45672-.3701-.82688-.8268-.82688h-1.6538c-.4955 0-.9574.14664-1.3453.39826-.3785-.42797-.9312-.69864-1.5462-.69864h-4.8811c-.8769 0-1.6276.55006-1.9264 1.32299h-1.9599c-1.1854 0-2.1499.96447-2.1499 2.14987s.9645 2.14987 2.1499 2.14987h4.2561v1.66635c0 .45672.3702.82688.8269.82688s.8269-.37016.8269-.82688V7.73247h1.447l2.0756 9.37823-3.9283 6.9968c-.4293.7616-1.2387 1.2348-2.1131 1.2348h-9.8065c-.4105-3.4428-3.3459-6.1215-6.8973-6.1215-1.57135 0-3.05391.512-4.28744 1.4803l-.00484.0039c-1.46867 1.1551-2.3918 2.8127-2.60691 4.6373H1.65568c.10789-5.9445 4.97707-10.7468 10.94642-10.7468h5.8656c.4629 0 .8398.377.8398.8401v7.4261c0 .4567.3701.8268.8269.8268h4.3998c1.7949 0 3.449-.9761 4.3166-2.5468.4015-.7267.6143-1.5497.615-2.3795l.0042-2.7471c.0006-.4567-.3692-.8275-.8259-.8282h-.001c-.4561 0-.8262.3695-.8269.8256l-.0042 2.7478c-.0003.5516-.1418 1.0988-.4086 1.5817-.5769 1.0439-1.6763 1.6925-2.8692 1.6925h-3.573v-6.5992c0-.4234-.1065-.8227-.2936-1.1725.7429-.4292 1.2442-1.2316 1.2442-2.1492 0-1.3679-1.113-2.48061-2.4806-2.48061h-3.0181c-.29 0-.5681.05039-.8269.14212V2.52188c0-1.36789-1.113-2.4806202-2.4806-2.4806202H7.77132C3.90439.0412598.688631 2.88041.0975453 6.58325c-.0248709.07881-.0384368.16247-.0384368.24935 0 .00263.0001668.00517.0003308.00767.0001589.00242.0003152.00481.0003152.00719C.0203489 7.164 0 7.48603 0 7.81258v4.30132c0 1.242.917636 2.2736 2.11047 2.4529l1.83107 1.831C1.5155 18.6963 0 21.9463 0 25.5442v.625c0 .4567.370155.8268.826873.8268H5.47384c-.01066.0533-.01648.1089-.01648.1654 0 1.2.44413 2.2978 1.17539 3.1395H.826873C.370155 30.3009 0 30.6714 0 31.1278c0 .4567.370155.8269.826873.8269H10.1576l.0276.0009c.0227.0009.0453.0017.068.0017 2.6444 0 4.7959-2.1515 4.7959-4.7959 0-.0565-.0058-.1121-.0165-.1654H26.957c1.302 0 2.5188-.624 3.2814-1.6563h1.0471c-.2354.573-.3604 1.1906-.3604 1.8217 0 1.2.4441 2.2978 1.1754 3.1395H21.3773c-.4568 0-.8269.3705-.8269.8269 0 .4567.3701.8269.8269.8269h14.248c.032.001.0637.0026.0956.0026 2.6444 0 4.7959-2.1515 4.7959-4.7959 0-.6311-.125-1.2487-.3605-1.8217h1.3527c.4568 0 .8269-.3701.8269-.8269 0-4.3646-3.4706-7.9341-7.7968-8.094Zm-18.126-5.1317h3.0181c.4558 0 .8269.3708.8269.8268 0 .4558-.3711.8269-.8269.8269h-3.0181c-.4561 0-.8269-.3711-.8269-.8269 0-.456.3708-.8268.8269-.8268ZM1.65604 7.71089v.00001c-.00115.03388-.00229.0677-.00229.10168v4.30132c0 .4558.3708.8269.82655.8269h10.625c.4561 0 .8269-.3711.8269-.8269V2.5222c0-.45607-.3708-.82687-.8269-.82687H7.77132c-2.74451 0-5.07235 1.81654-5.84496 4.31072h8.77934c.4568 0 .8269.37016.8269.82688 0 .45671-.3701.82687-.8269.82687H1.65762l-.00158.05109Zm2.82103 6.88371h1.89212c-.39729.2267-.78069.4751-1.14955.7425l-.74257-.7425Zm5.80813 15.708c1.7177-.0172 3.1101-1.4193 3.1101-3.1412 0-.0565.0059-.1121.0165-.1654H7.09464c.01066.0533.01647.1089.01647.1654 0 1.7006 1.35821 3.0888 3.04679 3.1395h.0953c.0061 0 .0122.0005.0183.0009.0046.0003.0091.0006.0137.0008Zm-5.26259-4.9603c.20478-1.3136.8947-2.5003 1.96027-3.3372.00259-.0016.00485-.0039.00743-.0055.93863-.7358 2.06686-1.125 3.26289-1.125 2.6383 0 4.8317 1.9396 5.23 4.4677H5.02261ZM36.0517 4.06387h-.8269c-.4561 0-.8269.37112-.8269.82687 0 .45608.3708.82688.8269.82688h.8269V4.06387ZM23.0698 5.5826c0-.27358.2225-.49612.4961-.49612h1.8217v.58139c0 .14083.0142.27811.041.41086h-1.8627c-.2736 0-.4961-.22255-.4961-.49613Zm4.3824.49613h4.8811c.2265 0 .4109-.18411.4109-.41086V4.17434c0-.22643-.1844-.41086-.4109-.41086h-4.8811c-.2264 0-.4109.18443-.4109.41086v1.49353c0 .22675.1845.41086.4109.41086ZM38.863 27.1614c0 1.7219-1.3924 3.124-3.1101 3.1412-.0022-.0001-.0045-.0002-.0067-.0003-.0024-.0002-.0047-.0003-.007-.0005-.0061-.0004-.0122-.0008-.0183-.0008h-.0953c-1.6886-.0508-3.0468-1.439-3.0468-3.1396 0-.657.2048-1.292.5821-1.8217h5.1201c.3773.5297.582 1.1647.582 1.8217ZM34.3563 18.07l-3.1531 5.616h9.426c-.4018-3.1263-3.053-5.5569-6.2729-5.616Z" fill="#495567"/><path d="M28.6489 13.5334c.4567 0 .8269-.3702.8269-.8269s-.3702-.8269-.8269-.8269h-.0029c-.4567 0-.8256.3702-.8256.8269s.3718.8269.8285.8269Z" fill="#000"/></svg>