<svg width="39" height="48" fill="none" xmlns="http://www.w3.org/2000/svg"><path fill-rule="evenodd" clip-rule="evenodd" d="M24.7996 0H4.01069C1.80386.00279851.0156159 1.79104.0128174 3.99787V43.9765C.0156159 46.1834 1.80386 47.9716 4.01069 47.9744H24V46.544c-.0038-3.6019 1.0625-7.1246 3.064-10.1194.2119-.3175.1693-.7398-.1-1.0091l-5.597-5.597c-.5173-.5179-.7915-1.2301-.7554-1.9612.0364-.7314.38-1.4126.9457-1.8768 1.0896-.8329 2.6306-.714 3.5797.2757l7.8926 7.8928 1.1306-1.1306-5.3627-5.3643V3.99787C28.7947 1.79104 27.0064.00279851 24.7996 0Zm2.3987 26.0549-.9307-.9307c-1.534-1.5672-4.0011-1.7305-5.7281-.3786-.9135.7508-1.4678 1.853-1.5256 3.0346-.0576 1.1814.3862 2.3321 1.2225 3.1689l5.1413 5.1415c-1.9174 3.0897-2.9456 6.6486-2.9712 10.2847H4.01069c-1.3245 0-2.39873-1.0743-2.39873-2.3988v-2.3987H21.6013v-1.5991H1.61196V6.39659H27.1983V26.0549ZM1.61196 4.79744H27.1983v-.79957c0-1.3245-1.0742-2.39872-2.3987-2.39872H4.01069c-1.3245 0-2.39873 1.07422-2.39873 2.39872v.79957ZM31.155 18.6005l-1.0782 1.1786 4.9036 4.4952c1.1544 1.062 1.8124 2.5584 1.8128 4.1266v19.5735h1.5991V28.4009c-.0019-2.017-.8479-3.9403-2.3331-5.3054l-4.9042-4.495ZM4.81026 14.3923h3.19829c.88333 0 1.59915-.7158 1.59915-1.5991V9.59488c0-.88333-.71582-1.59914-1.59915-1.59914H4.81026c-.88333 0-1.59915.71581-1.59915 1.59914v3.19832c0 .8833.71582 1.5991 1.59915 1.5991Zm0-4.79742h3.19829v3.19832H4.81026V9.59488ZM16.0043 14.3923H12.806c-.8833 0-1.5992-.7158-1.5992-1.5991V9.59488c0-.88333.7159-1.59914 1.5992-1.59914h3.1983c.8833 0 1.5991.71581 1.5991 1.59914v3.19832c0 .8833-.7158 1.5991-1.5991 1.5991Zm0-4.79742H12.806v3.19832h3.1983V9.59488Zm4.7974 4.79742H24c.8834 0 1.5992-.7158 1.5992-1.5991V9.59488c0-.88333-.7158-1.59914-1.5992-1.59914h-3.1983c-.8833 0-1.5991.71581-1.5991 1.59914v3.19832c0 .8833.7158 1.5991 1.5991 1.5991Zm0-4.79742H24v3.19832h-3.1983V9.59488ZM8.00855 22.3881H4.81026c-.88333 0-1.59915-.7159-1.59915-1.5992v-3.1983c0-.8833.71582-1.5991 1.59915-1.5991h3.19829c.88333 0 1.59915.7158 1.59915 1.5991v3.1983c0 .8833-.71582 1.5992-1.59915 1.5992Zm0-4.7975H4.81026v3.1983h3.19829v-3.1983ZM4.81026 30.3838h3.19829c.88333 0 1.59915-.7158 1.59915-1.5992v-3.1982c0-.8834-.71582-1.5992-1.59915-1.5992H4.81026c-.88333 0-1.59915.7158-1.59915 1.5992v3.1982c0 .8834.71582 1.5992 1.59915 1.5992Zm0-4.7974h3.19829v3.1982H4.81026v-3.1982Zm11.19404-3.1983H12.806c-.8833 0-1.5992-.7159-1.5992-1.5992v-3.1983c0-.8833.7159-1.5991 1.5992-1.5991h3.1983c.8833 0 1.5991.7158 1.5991 1.5991v3.1983c0 .8833-.7158 1.5992-1.5991 1.5992Zm0-4.7975H12.806v3.1983h3.1983v-3.1983Zm4.7974 4.7975H24c.8834 0 1.5992-.7159 1.5992-1.5992v-3.1983c0-.8833-.7158-1.5991-1.5992-1.5991h-3.1983c-.8833 0-1.5991.7158-1.5991 1.5991v3.1983c0 .8833.7158 1.5992 1.5991 1.5992Zm0-4.7975H24v3.1983h-3.1983v-3.1983Zm-4.7974 12.7932H12.806c-.8833 0-1.5992-.7158-1.5992-1.5992v-3.1982c0-.8834.7159-1.5992 1.5992-1.5992h3.1983c.8833 0 1.5991.7158 1.5991 1.5992v3.1982c0 .8834-.7158 1.5992-1.5991 1.5992Zm0-4.7974H12.806v3.1982h3.1983v-3.1982ZM4.81026 38.3795h3.19829c.88333 0 1.59915-.7158 1.59915-1.5991v-3.1983c0-.8833-.71582-1.5992-1.59915-1.5992H4.81026c-.88333 0-1.59915.7159-1.59915 1.5992v3.1983c0 .8833.71582 1.5991 1.59915 1.5991Zm0-4.7974h3.19829v3.1983H4.81026v-3.1983Zm11.19404 4.7974H12.806c-.8833 0-1.5992-.7158-1.5992-1.5991v-3.1983c0-.8833.7159-1.5992 1.5992-1.5992h3.1983c.8833 0 1.5991.7159 1.5991 1.5992v3.1983c0 .8833-.7158 1.5991-1.5991 1.5991Zm0-4.7974H12.806v3.1983h3.1983v-3.1983Zm-.7996 9.5949h-1.5991v1.5991h1.5991V43.177Z" fill="#495567"/></svg>