<svg width="40" height="40" fill="none" xmlns="http://www.w3.org/2000/svg"><path fill-rule="evenodd" clip-rule="evenodd" d="M36.1713 18H38c.3682 0 .6667-.2985.6667-.6667V12c0-.3682-.2985-.6667-.6667-.6667h-6.2547L30.6667 9.176V6.66667C30.6667 6.29848 30.3682 6 30 6h-4c-.3682 0-.6667.29848-.6667.66667v2.66666c0 .36819.2985.66667.6667.66667h3.588l1.0787 2.1573V16c0-1.1046-.8955-2-2-2-1.1046 0-2 .8954-2 2v-1.3333c0-.3682-.2985-.6667-.6667-.6667h-5.2513l-2.082-.5207V2.66667C18.6667 1.19391 17.4728 0 16 0h-2.6667c-1.4727 0-2.6666 1.19391-2.6666 2.66667V10H7.33333c-1.10457 0-2 .8954-2 2v2H.666667c-.269598.0001-.512623.1625-.6157857.4116-.1031626.249-.04615325.5357.1444517.7264L1.724 16.6667.195333 18.1953c-.19060495.1907-.2476143.4774-.1444517.7265.1031627.249.3461877.4115.6157857.4115H7.33333c1.10457 0 2-.8954 2-2v-2h1.33337V22H8.66667c-2.31772.0027-4.28223 1.706-4.61334 4H2c-.36819 0-.66667.2985-.66667.6667v2.6666c0 .3682.29848.6667.66667.6667h2v1.3333H.666667C.298477 31.3333 0 31.6318 0 32v2.6667c0 .3682.298477.6666.666667.6666H8C8 37.9107 10.0893 40 12.6667 40c2.5773 0 4.6666-2.0893 4.6666-4.6667h12C29.3333 37.9107 31.4227 40 34 40c2.5773 0 4.6667-2.0893 4.6667-4.6667h.6666c.2033.0002.3955-.0924.5221-.2515.1266-.159.1737-.3671.1279-.5651L36.1713 18Zm-9.5046-2c0 1.1046.8954 2 2 2 1.1045 0 2-.8954 2-2v14h-2v-.6667c0-1.1045-.8955-2-2-2V20c0-.3682-.2985-.6667-.6667-.6667h-7.3333v-1.8126l1.838.4593c.0529.0133.1074.02.162.02H26c.3682 0 .6667-.2985.6667-.6667V16Zm2.6666-7.33333h-2.6666V7.33333h2.6666v1.33334ZM4 34v-1.3333H1.33333V34H4Zm0-5.3333H2.66667v-1.3334H4v1.3334Zm33.3333-16H36v4h1.3333v-4Zm-5.3333 0h2.6667v4H32v-4Zm-4.6667 16.6666c0-.3682-.2984-.6666-.6666-.6666H24V30h3.3333v-.6667Zm-6.8286-14.02c.0529.0133.1074.02.162.02h4.6666v1.3334h-4.5846L16 15.4793v-1.292l4.5047 1.126ZM13.3333 1.33333c-.7363 0-1.3333.59696-1.3333 1.33334v2.66666h2V4c0-.36819.2985-.66667.6667-.66667h2.6666v-.66666c0-.73638-.5969-1.33334-1.3333-1.33334h-2.6667ZM12 6.66667h2.6667c.3682 0 .6666-.29848.6666-.66667V4.66667h2v1.504L12 7.77067v-1.104Zm5.3333 4.00003V7.56267L12 9.16267v1.50403h5.3333Zm0 1.3333v1.146l-1.838-.4593c-.1992-.0499-.4102-.0053-.5721.1211-.1619.1263-.2565.3202-.2565.5255V16c0 .3058.208.5724.5046.6467l2.162.5406v2.146H12V12h5.3333Zm8 15.3333v-6.6666H12V22h11.3333c.3682 0 .6667.2985.6667.6667v4.6666h1.3333ZM8 17.3333c0 .3682-.29848.6667-.66667.6667H2.276l.862-.862c.26025-.2603.26025-.6823 0-.9427l-.862-.862H8v2ZM6.66667 12v2h4.00003v-2.6667H7.33333c-.36819 0-.66666.2985-.66666.6667Zm6.00003 26.6667c-1.8401-.0022-3.33116-1.4933-3.33337-3.3334h1.33337c0 1.1046.8954 2 2 2 1.1045 0 2-.8954 2-2H16c-.0022 1.8401-1.4933 3.3312-3.3333 3.3334Zm0-2.6667c.3682 0 .6666-.2985.6666-.6667H12c0 .3682.2985.6667.6667.6667Zm4.6666-2H8v-6.6667c0-.3682.29848-.6666.66667-.6666h8.00003c.3682 0 .6666.2984.6666.6666V34Zm1.3334 0H20v-7.3333c-.0022-1.8401-1.4933-3.3312-3.3333-3.3334H8.66667c-1.84004.0022-3.33113 1.4933-3.33334 3.3334V34h1.33334v-6.6667c0-1.1045.89543-2 2-2h8.00003c1.1045 0 2 .8955 2 2V34Zm1.26-10.6667h2.74V30h-1.3334v-3.3333c.0002-1.2554-.5071-2.4576-1.4066-3.3334ZM34 38.6667c-1.84-.0022-3.3311-1.4933-3.3333-3.3334H32c0 1.1046.8954 2 2 2s2-.8954 2-2h1.3333C37.3311 37.1734 35.84 38.6645 34 38.6667ZM34 36c.3682 0 .6667-.2985.6667-.6667h-1.3334c0 .3682.2985.6667.6667.6667Zm-2-2v-4.6667h1.3333V28H32V18h2.8l3.692 16H32Zm-10.6667 0h9.3334v-2.6667h-9.3334V34ZM36 28h-1.3333v1.3333H36V28ZM9.33333 28h1.33337v1.3333H9.33333V28Zm3.99997 0H12v1.3333h1.3333V28Zm1.3334 0H16v1.3333h-1.3333V28Zm14-12.6667c.3682 0 .6666.2985.6666.6667 0 .3682-.2984.6667-.6666.6667-.3682 0-.6667-.2985-.6667-.6667 0-.3682.2985-.6667.6667-.6667ZM0 4.66667h8.66667V6H0V4.66667Zm9.33333 2.66666h-8v1.33334h8V7.33333Z" fill="#495567"/></svg>