<svg width="108" height="29" fill="none" xmlns="http://www.w3.org/2000/svg"><path fill-rule="evenodd" clip-rule="evenodd" d="M107.097 23.2V28h-8.3999c-.9066 0-1.6466-.2933-2.22-.88-.5733-.5867-.86-1.3333-.86-2.24V12.96h-5.88v-4.8h5.88V0h5.0399v8.16h7.16v4.8h-7.16V22c0 .8.36 1.2 1.08 1.2h5.36ZM9.12 28.56c2.6133 0 4.64-.5867 6.08-1.76 1.44-1.1733 2.16-2.7467 2.16-4.72v-.24c0-1.7867-.64-3.18-1.92-4.18-1.28-1-2.9333-1.6067-4.96-1.82-1.76-.1867-2.97333-.42-3.64-.7-.66667-.28-1-.74-1-1.38 0-.4533.21333-.8333.64-1.14.42667-.3067 1.06667-.46 1.92-.46.93333 0 1.6933.2067 2.28.62.5867.4133 1 .98 1.24 1.7l4.56-1.84c-.2133-.56-.52-1.14-.92-1.74-.4-.6-.92-1.14667-1.56-1.64-.64-.49333-1.42-.89333-2.34-1.2-.92-.30667-2.00667-.46-3.26-.46-.96 0-1.89333.13333-2.8.4-.90667.26667-1.70667.66-2.4 1.18-.69333.52-1.25333 1.1533-1.68 1.9-.42667.7467-.64 1.6133-.64 2.6v.24c0 1.8933.66 3.3267 1.98 4.3 1.32.9733 3.1 1.5533 5.34 1.74.82667.08 1.51333.1867 2.06.32.5467.1333.98.3 1.3.5.32.2.54.4133.66.64s.18.4733.18.74c0 .4533-.2333.8733-.7 1.26-.4667.3867-1.3267.58-2.58.58-1.41333 0-2.46-.32-3.14-.96-.68-.64-1.12667-1.3867-1.34-2.24L0 22.32c.133333.6933.393333 1.4067.78 2.14.38667.7333.94 1.4 1.66 2 .72.6 1.62667 1.1 2.72 1.5 1.09333.4 2.41333.6 3.96.6Zm22.4543 0c2.8267 0 5.0867-.72 6.78-2.16 1.6933-1.44 2.7667-3.3333 3.22-5.68l-4.96-1.24c-.24 1.3067-.7667 2.3467-1.58 3.12-.8133.7733-1.9933 1.16-3.54 1.16-.72 0-1.4-.1133-2.04-.34-.64-.2267-1.2-.5667-1.68-1.02-.48-.4533-.86-1.02-1.14-1.7-.28-.68-.42-1.46-.42-2.34v-.24c0-.88.14-1.6733.42-2.38.28-.7067.66-1.3067 1.14-1.8.48-.4933 1.04-.8733 1.68-1.14.64-.2667 1.32-.4 2.04-.4 1.5467 0 2.7467.4267 3.6 1.28s1.36 1.8667 1.52 3.04l4.96-1.28c-.4533-2.3467-1.54-4.24-3.26-5.68-1.72-1.44-3.9667-2.16-6.74-2.16-1.44 0-2.7933.24-4.06.72-1.2667.48-2.3733 1.17333-3.32 2.08-.9467.9067-1.6867 2-2.22 3.28-.5333 1.28-.8 2.72-.8 4.32v.48c0 1.6.2667 3.0267.8 4.28.5333 1.2533 1.2667 2.3067 2.2 3.16.9333.8533 2.0333 1.5067 3.3 1.96 1.2667.4533 2.6333.68 4.1.68Zm26.3543-.68c-1.24.4533-2.54.68-3.9.68-1.36 0-2.66-.2267-3.9-.68-1.24-.4533-2.34-1.1133-3.3-1.98s-1.72-1.9333-2.28-3.2c-.56-1.2667-.84-2.7267-.84-4.38v-.48c0-1.6267.28-3.0733.84-4.34.56-1.2667 1.32-2.34 2.28-3.22.96-.88 2.06-1.54667 3.3-2 1.24-.45333 2.54-.68 3.9-.68 1.36 0 2.66.22667 3.9.68 1.24.45333 2.34 1.12 3.3 2 .96.88 1.72 1.9533 2.28 3.22.56 1.2667.84 2.7133.84 4.34v.48c0 1.6533-.28 3.1133-.84 4.38-.56 1.2667-1.32 2.3333-2.28 3.2-.96.8667-2.06 1.5267-3.3 1.98Zm-3.9-4.12c-.72 0-1.4-.12-2.04-.36-.64-.24-1.2-.5867-1.68-1.04-.48-.4533-.86-1.0067-1.14-1.66-.28-.6533-.42-1.3933-.42-2.22v-.8c0-.8267.14-1.5667.42-2.22.28-.6533.66-1.2067 1.14-1.66.48-.4533 1.04-.8 1.68-1.04.64-.24 1.32-.36 2.04-.36s1.4.12 2.04.36c.64.24 1.2.5867 1.68 1.04.48.4533.86 1.0067 1.14 1.66.28.6533.42 1.3933.42 2.22v.8c0 .8267-.14 1.5667-.42 2.22-.28.6533-.66 1.2067-1.14 1.66-.48.4533-1.04.8-1.68 1.04-.64.24-1.32.36-2.04.36Zm26.5943 4.12c-1.24.4533-2.54.68-3.9.68-1.36 0-2.66-.2267-3.9-.68-1.24-.4533-2.34-1.1133-3.3-1.98s-1.72-1.9333-2.28-3.2c-.56-1.2667-.84-2.7267-.84-4.38v-.48c0-1.6267.28-3.0733.84-4.34.56-1.2667 1.32-2.34 2.28-3.22.96-.88 2.06-1.54667 3.3-2 1.24-.45333 2.54-.68 3.9-.68 1.36 0 2.66.22667 3.9.68 1.24.45333 2.34 1.12 3.3 2 .96.88 1.72 1.9533 2.28 3.22.56 1.2667.84 2.7133.84 4.34v.48c0 1.6533-.28 3.1133-.84 4.38-.56 1.2667-1.32 2.3333-2.28 3.2-.96.8667-2.06 1.5267-3.3 1.98Zm-3.9-4.12c-.72 0-1.4-.12-2.04-.36-.64-.24-1.2-.5867-1.68-1.04-.48-.4533-.86-1.0067-1.14-1.66-.28-.6533-.42-1.3933-.42-2.22v-.8c0-.8267.14-1.5667.42-2.22.28-.6533.66-1.2067 1.14-1.66.48-.4533 1.04-.8 1.68-1.04.64-.24 1.32-.36 2.04-.36s1.4.12 2.04.36c.64.24 1.2.5867 1.68 1.04.48.4533.86 1.0067 1.14 1.66.28.6533.42 1.3933.42 2.22v.8c0 .8267-.14 1.5667-.42 2.22-.28.6533-.66 1.2067-1.14 1.66-.48.4533-1.04.8-1.68 1.04-.64.24-1.32.36-2.04.36Z" fill="#495567"/></svg>