<svg width="182" height="56" fill="none" xmlns="http://www.w3.org/2000/svg"><rect width="182" height="56" rx="4" fill="#E5ECF4"/><g clip-path="url(#a)" fill="#495567"><path d="M57.2 35.92h6V43h-2.4v-1.56h-.36c-.16.52-.4667.96-.92 1.32-.4533.3467-1.1333.52-2.04.52-.64 0-1.24-.12-1.8-.36s-1.0467-.5933-1.46-1.06c-.4133-.48-.74-1.0667-.98-1.76-.24-.7067-.36-1.5267-.36-2.46v-3.28c0-.9067.1267-1.7067.38-2.4.2667-.7067.6267-1.3 1.08-1.78.4667-.48 1.02-.84 1.66-1.08.64-.2533 1.3467-.38 2.12-.38.8 0 1.5133.1333 2.14.4.6267.2533 1.16.6133 1.6 1.08.44.4533.7733.9933 1 1.62.2267.6133.34 1.2733.34 1.98v.24h-2.64v-.24c0-.84-.22-1.4733-.66-1.9-.4267-.44-1.0333-.66-1.82-.66-.7467 0-1.36.2533-1.84.76-.48.4933-.72 1.3467-.72 2.56v2.96c0 2.16.88 3.24 2.64 3.24.7867 0 1.38-.2067 1.78-.62.4133-.4267.62-.9933.62-1.7H57.2v-2.52Zm17.4332 2.24c0 .8267-.14 1.56-.42 2.2-.28.6267-.66 1.16-1.14 1.6-.48.4267-1.0333.7533-1.66.98-.6133.2267-1.26.34-1.94.34-.68 0-1.3333-.1133-1.96-.34-.6133-.2267-1.16-.5533-1.64-.98-.48-.44-.86-.9733-1.14-1.6-.28-.64-.42-1.3733-.42-2.2v-.24c0-.8133.14-1.5333.42-2.16.28-.64.66-1.18 1.14-1.62.48-.44 1.0267-.7733 1.64-1 .6267-.2267 1.28-.34 1.96-.34.68 0 1.3267.1133 1.94.34.6267.2267 1.18.56 1.66 1 .48.44.86.98 1.14 1.62.28.6267.42 1.3467.42 2.16v.24Zm-5.16 2.72c.36 0 .7-.06 1.02-.18.32-.12.6-.2933.84-.52s.4267-.5.56-.82c.1467-.3333.22-.7067.22-1.12v-.4c0-.4133-.0733-.78-.22-1.1-.1333-.3333-.32-.6133-.56-.84-.24-.2267-.52-.4-.84-.52-.32-.12-.66-.18-1.02-.18s-.7.06-1.02.18c-.32.12-.6.2933-.84.52s-.4333.5067-.58.84c-.1333.32-.2.6867-.2 1.1v.4c0 .4133.0667.7867.2 1.12.1467.32.34.5933.58.82.24.2267.52.4.84.52.32.12.66.18 1.02.18Zm16.5133-2.72c0 .8267-.14 1.56-.42 2.2-.28.6267-.66 1.16-1.14 1.6-.48.4267-1.0334.7533-1.66.98-.6134.2267-1.26.34-1.94.34-.68 0-1.3334-.1133-1.96-.34-.6134-.2267-1.16-.5533-1.64-.98-.48-.44-.86-.9733-1.14-1.6-.28-.64-.42-1.3733-.42-2.2v-.24c0-.8133.14-1.5333.42-2.16.28-.64.66-1.18 1.14-1.62.48-.44 1.0266-.7733 1.64-1 .6266-.2267 1.28-.34 1.96-.34.68 0 1.3266.1133 1.94.34.6266.2267 1.18.56 1.66 1 .48.44.86.98 1.14 1.62.28.6267.42 1.3467.42 2.16v.24Zm-5.16 2.72c.36 0 .7-.06 1.02-.18.32-.12.6-.2933.84-.52s.4266-.5.56-.82c.1466-.3333.22-.7067.22-1.12v-.4c0-.4133-.0734-.78-.22-1.1-.1334-.3333-.32-.6133-.56-.84-.24-.2267-.52-.4-.84-.52-.32-.12-.66-.18-1.02-.18s-.7.06-1.02.18c-.32.12-.6.2933-.84.52s-.4334.5067-.58.84c-.1334.32-.2.6867-.2 1.1v.4c0 .4133.0666.7867.2 1.12.1466.32.34.5933.58.82.24.2267.52.4.84.52.32.12.66.18 1.02.18Zm13.8732.68h-.36c-.1067.2267-.24.4467-.4.66-.1467.2-.3467.38-.6.54-.24.16-.5333.2867-.88.38-.3333.0933-.74.14-1.22.14-.6133 0-1.1867-.1067-1.72-.32-.52-.2267-.98-.5533-1.38-.98-.3867-.44-.6933-.9733-.92-1.6-.2133-.6267-.32-1.3467-.32-2.16v-.36c0-.8.1133-1.5133.34-2.14.24-.6267.56-1.1533.96-1.58.4133-.44.8867-.7733 1.42-1 .5467-.2267 1.12-.34 1.72-.34.8 0 1.4333.1533 1.9.46.4667.2933.8333.7133 1.1 1.26h.36v-1.44h2.52v12.36c0 .4533-.1467.8267-.44 1.12-.28.2933-.6467.44-1.1.44h-6.68v-2.4h5.16c.36 0 .54-.2.54-.6v-2.44Zm-2.64-.68c.7867 0 1.42-.2467 1.9-.74.4933-.5067.74-1.1667.74-1.98v-.24c0-.8133-.2467-1.4667-.74-1.96-.48-.5067-1.1133-.76-1.9-.76s-1.4267.2467-1.92.74c-.48.48-.72 1.14-.72 1.98v.24c0 .84.24 1.5067.72 2 .4933.48 1.1333.72 1.92.72Zm6.8532-.28h3.4801v-9.2h-3.3601V29h5.8801v11.6h3.24V43h-9.2401v-2.4Zm13.6331-1.74c.014.2933.08.5667.2.82.134.24.307.4533.52.64.227.1733.48.3133.76.42.294.0933.6.14.92.14.627 0 1.107-.1067 1.44-.32.334-.2267.574-.4933.72-.8l2.16 1.2c-.12.2533-.286.52-.5.8-.213.2667-.493.5133-.84.74-.333.2267-.746.4133-1.24.56-.48.1467-1.046.22-1.7.22-.746 0-1.426-.12-2.04-.36-.613-.24-1.146-.5867-1.6-1.04-.44-.4533-.786-1.0067-1.04-1.66-.24-.6533-.36-1.3933-.36-2.22v-.12c0-.76.127-1.4533.38-2.08.267-.6267.627-1.16 1.08-1.6.454-.44.98-.78 1.58-1.02.614-.2533 1.267-.38 1.96-.38.854 0 1.587.1533 2.2.46.614.2933 1.12.6733 1.52 1.14.4.4533.694.96.88 1.52.187.5467.28 1.08.28 1.6v1.34h-7.28Zm2.38-3.78c-.64 0-1.16.1667-1.56.5-.4.32-.66.6933-.78 1.12h4.68c-.08-.4667-.333-.8533-.76-1.16-.413-.3067-.94-.46-1.58-.46Zm9.273 2.64V43h-2.64V29h5.48c.72 0 1.347.12 1.88.36.534.2267.974.5333 1.32.92.36.3733.627.8067.8 1.3.187.48.28.9733.28 1.48v.48c0 .52-.093 1.0333-.28 1.54-.173.4933-.44.94-.8 1.34-.346.3867-.786.7-1.32.94-.533.24-1.16.36-1.88.36h-2.84Zm0-2.52h2.58c.587 0 1.047-.16 1.38-.48.347-.32.52-.7333.52-1.24v-.24c0-.5067-.173-.92-.52-1.24-.333-.32-.793-.48-1.38-.48h-2.58v3.68Zm8.774 5.4h3.48v-9.2h-3.36V29h5.88v11.6h3.24V43h-9.24v-2.4Zm17.833.96c-.267.6267-.64 1.0733-1.12 1.34-.48.2533-1.04.38-1.68.38-.6 0-1.167-.1133-1.7-.34-.52-.2267-.98-.56-1.38-1-.4-.44-.72-.9733-.96-1.6-.227-.6267-.34-1.34-.34-2.14v-.32c0-.7867.113-1.4933.34-2.12.227-.6267.533-1.16.92-1.6.387-.44.833-.7733 1.34-1 .52-.24 1.073-.36 1.66-.36.707 0 1.273.12 1.7.36.44.24.787.6133 1.04 1.12h.36v-1.2h2.52V40c0 .4.18.6.54.6h.38V43h-1.72c-.453 0-.827-.1333-1.12-.4-.28-.2667-.42-.6133-.42-1.04h-.36Zm-2.24-.68c.733 0 1.32-.24 1.76-.72.44-.4933.66-1.16.66-2v-.24c0-.84-.22-1.5-.66-1.98-.44-.4933-1.027-.74-1.76-.74-.733 0-1.32.2467-1.76.74-.44.48-.66 1.14-.66 1.98v.24c0 .84.22 1.5067.66 2 .44.48 1.027.72 1.76.72Zm13.893-7.8h2.52v12.36c0 .4533-.147.8267-.44 1.12-.28.2933-.647.44-1.1.44h-5.9v-2.4h4.38c.36 0 .54-.2.54-.6v-2.44h-.36c-.44 1.1467-1.387 1.72-2.84 1.72-.493 0-.953-.08-1.38-.24-.427-.16-.8-.4067-1.12-.74-.32-.3333-.573-.7467-.76-1.24-.173-.5067-.26-1.1-.26-1.78v-6.2h2.52v5.68c0 .7067.167 1.26.5 1.66.333.3867.833.58 1.5.58.76 0 1.313-.24 1.66-.72.36-.4933.54-1.16.54-2v-5.2ZM54.6 15.46h3V19h-1.2v-.78h-.18c-.08.26-.2333.48-.46.66-.2267.1733-.5667.26-1.02.26-.32 0-.62-.06-.9-.18s-.5233-.2967-.73-.53c-.2067-.24-.37-.5333-.49-.88-.12-.3533-.18-.7633-.18-1.23v-1.64c0-.4533.0633-.8533.19-1.2.1333-.3533.3133-.65.54-.89.2333-.24.51-.42.83-.54.32-.1267.6733-.19 1.06-.19.4 0 .7567.0667 1.07.2.3133.1267.58.3067.8.54.22.2267.3867.4967.5.81.1133.3067.17.6367.17.99v.12h-1.32v-.12c0-.42-.11-.7367-.33-.95-.2133-.22-.5167-.33-.91-.33-.3733 0-.68.1267-.92.38-.24.2467-.36.6733-.36 1.28v1.48c0 1.08.44 1.62 1.32 1.62.3933 0 .69-.1033.89-.31.2067-.2133.31-.4967.31-.85H54.6v-1.26Zm4.9666 1.47c.0067.1467.04.2833.1.41.0667.12.1534.2267.26.32.1134.0867.24.1567.38.21.1467.0467.3.07.46.07.3134 0 .5534-.0533.72-.16.1667-.1133.2867-.2467.36-.4l1.08.6c-.06.1267-.1433.26-.25.4-.1066.1333-.2466.2567-.42.37-.1666.1133-.3733.2067-.62.28-.24.0733-.5233.11-.85.11-.3733 0-.7133-.06-1.02-.18-.3066-.12-.5733-.2933-.8-.52-.22-.2267-.3933-.5033-.52-.83-.12-.3267-.18-.6967-.18-1.11v-.06c0-.38.0634-.7267.19-1.04.1334-.3133.3134-.58.54-.8.2267-.22.49-.39.79-.51.3067-.1267.6334-.19.98-.19.4267 0 .7934.0767 1.1.23.3067.1467.56.3367.76.57.2.2267.3467.48.44.76.0934.2733.14.54.14.8v.67h-3.64Zm1.19-1.89c-.32 0-.58.0833-.78.25-.2.16-.33.3467-.39.56h2.34c-.04-.2333-.1666-.4267-.38-.58-.2066-.1533-.47-.23-.79-.23Zm3.2366-1h1.47V12h1.26v2.04h1.79v1.2h-1.79v2.26c0 .2.09.3.27.3h1.34V19h-2.1c-.2266 0-.4133-.0733-.56-.22-.14-.1467-.21-.3333-.21-.56v-2.98h-1.47v-1.2Zm11.5833 3.76h1.68v-2.56h-1.56v-1.2h2.82v3.76h1.44V19h-4.38v-1.2Zm3.25-5.23c0 .1333-.0267.26-.08.38-.0467.1133-.1134.2133-.2.3-.0867.08-.19.1467-.31.2-.1134.0467-.2334.07-.36.07-.1334 0-.2567-.0233-.37-.07-.1134-.0533-.2134-.12-.3-.2-.0867-.0867-.1567-.1867-.21-.3-.0467-.12-.07-.2467-.07-.38s.0233-.2567.07-.37c.0533-.12.1233-.22.21-.3.0866-.0867.1866-.1533.3-.2.1133-.0533.2366-.08.37-.08.1266 0 .2466.0267.36.08.12.0467.2233.1133.31.2.0866.08.1533.18.2.3.0533.1133.08.2367.08.37Zm2.1966 1.47h1.47V12h1.26v2.04h1.79v1.2h-1.79v2.26c0 .2.09.3.27.3h1.34V19h-2.1c-.2267 0-.4133-.0733-.56-.22-.14-.1467-.21-.3333-.21-.56v-2.98h-1.47v-1.2Zm16.3532 2.54c0 .4133-.07.78-.21 1.1-.14.3133-.33.58-.57.8-.24.2133-.5166.3767-.83.49-.3066.1133-.63.17-.97.17-.34 0-.6666-.0567-.98-.17-.3066-.1133-.58-.2767-.82-.49-.24-.22-.43-.4867-.57-.8-.14-.32-.21-.6867-.21-1.1v-.12c0-.4067.07-.7667.21-1.08.14-.32.33-.59.57-.81.24-.22.5134-.3867.82-.5.3134-.1133.64-.17.98-.17.34 0 .6634.0567.97.17.3134.1133.59.28.83.5.24.22.43.49.57.81.14.3133.21.6733.21 1.08v.12Zm-2.58 1.36c.18 0 .35-.03.51-.09.16-.06.3-.1467.42-.26.12-.1133.2134-.25.28-.41.0734-.1667.11-.3533.11-.56v-.2c0-.2067-.0366-.39-.11-.55-.0666-.1667-.16-.3067-.28-.42-.12-.1133-.26-.2-.42-.26-.16-.06-.33-.09-.51-.09s-.35.03-.51.09c-.16.06-.3.1467-.42.26-.12.1133-.2166.2533-.29.42-.0666.16-.1.3433-.1.55v.2c0 .2067.0334.3933.1.56.0734.16.17.2967.29.41.12.1133.26.2.42.26.16.06.33.09.51.09ZM99.4529 19h-1.26v-4.96h1.26v.74h.18c.1134-.28.2967-.4967.5501-.65.253-.1533.55-.23.89-.23.24 0 .463.04.67.12.213.0733.4.19.56.35.16.16.283.3633.37.61.093.2467.14.54.14.88V19h-1.26v-2.82c0-.3533-.087-.63-.26-.83-.167-.2067-.41-.31-.73-.31-.373 0-.6534.1267-.8401.38-.18.2467-.27.58-.27 1V19Z"/></g><path fill-rule="evenodd" clip-rule="evenodd" d="M17.3522 14.2371c.7248-.3494 1.5558-.3119 2.2531.1078l13.8719 8.0781-3.9732 3.9917-12.1518-12.1776ZM16 16.4214c0-.3716.0825-.7327.2358-1.0573l12.149 12.175-12.1469 12.2046C16.083 39.426 16 39.0702 16 38.697V16.4214Zm13.5056 12.2405L17.3734 40.8517c.322.1491.6645.2141 1.0066.2141.4223 0 .8437-.101 1.2253-.3304l13.8746-8.0902-3.9743-3.9833Zm9.24-3.1712c.0048.0026.01.0058.0148.0089.7163.4346 1.144 1.1948 1.144 2.0332 0 .8384-.4277 1.5986-1.144 2.0336-.0048.0027-3.8638 2.2525-3.8638 2.2525l-4.2724-4.2814 4.2698-4.2898 3.8516 2.243Z" fill="#495567"/><defs><clipPath id="a"><path fill="#fff" transform="translate(52 8)" d="M0 0h114v39H0z"/></clipPath></defs></svg>